<?xml version="1.0" standalone="no"?>
<!DOCTYPE svg PUBLIC "-//W3C//DTD SVG 20010904//EN"
 "http://www.w3.org/TR/2001/REC-SVG-20010904/DTD/svg10.dtd">
<svg version="1.0"
    xmlns="http://www.w3.org/2000/svg" viewBox="0 0 140.000000 128.000000" preserveAspectRatio="xMidYMid meet">

    <g transform="translate(0.000000,128.000000) scale(0.100000,-0.100000)" stroke="none">
        <path d="M640 1265 c-142 -27 -286 -117 -382 -239 l-39 -50 23 -12 c15 -8 27
-9 34 -3 16 13 146 -51 140 -68 -3 -7 4 -18 16 -24 17 -9 24 -8 33 4 10 14 18
14 70 1 33 -7 93 -16 133 -20 l72 -7 0 -37 c0 -62 11 -98 31 -103 17 -5 19 1
19 69 0 72 1 74 25 74 18 0 28 7 35 26 6 14 10 26 10 28 0 1 -16 0 -35 -2
l-35 -4 0 161 c0 105 4 161 10 161 26 0 89 -42 129 -85 24 -26 58 -79 76 -118
36 -77 37 -73 -19 -91 -18 -6 -18 -7 -1 -26 11 -12 28 -19 44 -18 24 3 27 -1
38 -52 6 -30 12 -83 12 -117 l1 -63 -34 0 c-52 0 -52 -16 1 -40 26 -11 55 -28
65 -37 17 -15 18 -15 18 0 0 26 126 25 133 0 4 -17 5 -17 6 0 1 13 10 17 36
17 32 0 35 -3 35 -28 0 -39 -27 -127 -56 -182 -40 -78 -34 -75 -113 -38 -39
18 -69 38 -67 43 2 6 -23 10 -64 10 -38 0 -71 3 -75 6 -3 4 0 18 6 32 11 24
16 26 54 20 37 -5 45 -2 55 16 18 34 3 57 -50 80 -38 17 -50 27 -50 44 -1 21
-1 22 -15 3 -28 -37 -35 -6 -20 89 8 50 15 104 15 122 0 29 -21 63 -38 63 -4
0 -26 -53 -48 -118 -41 -116 -42 -117 -72 -115 -16 2 -47 8 -68 15 -34 11 -39
18 -45 51 -3 21 -15 44 -25 52 -18 13 -19 10 -25 -46 -5 -49 -12 -66 -38 -92
-17 -18 -31 -38 -31 -44 0 -24 34 -23 72 4 l39 27 55 -27 c30 -15 54 -30 54
-35 0 -4 -21 -59 -46 -121 -46 -115 -47 -130 -6 -131 11 0 77 95 124 179 12
22 21 28 37 24 16 -4 21 -13 21 -39 0 -19 -4 -34 -8 -34 -5 0 -14 -11 -20 -24
-10 -23 -9 -23 57 -35 36 -7 72 -15 78 -19 18 -11 -48 -142 -98 -197 -40 -43
-103 -85 -129 -85 -6 0 -10 34 -10 90 0 50 -4 90 -9 90 -36 0 -41 -12 -41 -96
0 -69 -3 -84 -15 -84 -31 0 -93 40 -134 86 -47 53 -106 166 -98 187 5 13 96
37 143 37 16 0 25 9 33 30 5 16 9 30 7 30 -13 0 -177 -31 -189 -36 -19 -7 -32
35 -43 134 -7 62 -6 62 19 62 46 0 38 17 -19 39 -44 17 -78 21 -161 21 l-105
0 3 46 c3 36 -1 48 -15 56 -12 7 -21 7 -28 0 -15 -15 -11 -200 7 -267 45 -175
175 -335 335 -414 350 -172 755 -3 887 371 23 63 27 89 27 198 0 110 -3 134
-26 198 -52 144 -134 251 -254 331 -135 91 -312 127 -474 96z m100 -206 l0
-162 -62 7 c-107 11 -180 28 -185 43 -8 21 51 134 98 187 42 47 99 85 132 86
15 0 17 -14 17 -161z m-203 90 c-20 -22 -50 -74 -69 -115 -18 -41 -37 -74 -41
-74 -14 0 -107 50 -107 58 0 21 109 107 185 146 68 35 72 33 32 -15z m496 9
c34 -18 88 -57 120 -87 l59 -55 -54 -27 c-29 -16 -58 -28 -63 -29 -6 0 -17 17
-24 38 -16 45 -75 145 -96 162 -15 13 -20 30 -9 30 3 0 34 -15 67 -32z m245
-245 c33 -62 57 -139 67 -215 l6 -48 -105 0 -105 0 -5 33 c-2 17 -9 68 -14
112 -6 44 -13 87 -16 95 -4 11 12 24 57 46 34 17 67 31 73 32 6 1 25 -24 42
-55z m-888 -360 c1 -21 7 -69 14 -108 8 -38 13 -71 12 -71 -16 -15 -130 -63
-137 -59 -28 18 -98 203 -99 263 0 9 28 12 105 12 l105 0 0 -37z m78 -307 c19
-41 49 -93 69 -115 19 -23 32 -41 29 -41 -41 0 -246 143 -246 171 0 9 87 58
105 59 6 0 25 -33 43 -74z m689 47 l55 -27 -60 -57 c-52 -50 -178 -126 -189
-115 -3 2 11 25 30 50 35 44 87 145 87 165 0 17 17 13 77 -16z"/>
        <path d="M51 1125 c-16 -14 -35 -42 -41 -61 -39 -117 80 -222 398 -351 l157
-63 18 21 c9 12 17 31 17 43 0 19 -14 28 -87 56 -263 99 -431 204 -416 260 8
31 20 33 62 12 l38 -20 26 33 c15 19 27 36 27 39 0 3 -22 17 -50 31 -64 32
-110 32 -149 0z"/>
    </g>
</svg>
