<?xml version="1.0" encoding="iso-8859-1"?>
<!-- Generator: Adobe Illustrator 18.0.0, SVG Export Plug-In . SVG Version: 6.00 Build 0)  -->
<!DOCTYPE svg PUBLIC "-//W3C//DTD SVG 1.1//EN" "http://www.w3.org/Graphics/SVG/1.1/DTD/svg11.dtd">
<svg version="1.1" id="Capa_1"
    xmlns="http://www.w3.org/2000/svg"
    xmlns:xlink="http://www.w3.org/1999/xlink" x="0px" y="0px" viewBox="0 0 194.991 194.991" style="enable-background:new 0 0 194.991 194.991;" xml:space="preserve">
    <g>
        <path d="M188.991,86.178h-64.844c-1.197-11.607-9.834-21.036-21.047-23.432V33.674c5.385,2.214,9.19,7.51,9.19,13.684
		c0,3.313,2.687,6,6,6s6-2.687,6-6c0-12.852-9.097-23.615-21.19-26.2V10.22c0-3.313-2.687-6-6-6s-6,2.687-6,6v11.121
		c-11.696,2.876-20.399,13.446-20.399,26.017S79.404,70.499,91.1,73.375v12.804H6c-3.313,0-6,2.687-6,6v54.758c0,3.314,2.687,6,6,6
		h31.492l-6.692,30.551c-0.389,1.774,0.047,3.63,1.187,5.045c1.139,1.416,2.857,2.239,4.674,2.239H158.33
		c1.817,0,3.536-0.823,4.674-2.239c1.139-1.415,1.575-3.271,1.187-5.045l-6.692-30.551h31.492c3.313,0,6-2.686,6-6V92.178
		C194.991,88.865,192.305,86.178,188.991,86.178z M82.701,47.358c0-5.865,3.439-10.928,8.399-13.32v26.64
		C86.14,58.286,82.701,53.223,82.701,47.358z M103.1,75.262c4.559,1.875,7.978,5.96,8.921,10.917H103.1V75.262z M150.873,178.771
		h-15.899l-7.763-56.482h11.291L150.873,178.771z M56.49,122.289h52.281l4.313,56.482H44.118L56.49,122.289z M182.991,140.937
		H154.87l-4.084-18.647h8.627c3.313,0,6-2.687,6-6s-2.687-6-6-6H143.33H51.662H35.579c-3.313,0-6,2.687-6,6s2.687,6,6,6h8.627
		l-4.084,18.647H12V98.178h170.991V140.937z"/>
    </g>
</svg>
