<?xml version="1.0" standalone="no"?>
<!DOCTYPE svg PUBLIC "-//W3C//DTD SVG 20010904//EN"
 "http://www.w3.org/TR/2001/REC-SVG-20010904/DTD/svg10.dtd">
<svg version="1.0"
    xmlns="http://www.w3.org/2000/svg" viewBox="0 0 56.000000 50.000000" preserveAspectRatio="xMidYMid meet">

    <g transform="translate(0.000000,50.000000) scale(0.100000,-0.100000)" stroke="none">
        <path d="M107 483 c-16 -16 -5 -44 21 -54 15 -7 37 -16 49 -22 28 -13 37 -5
28 23 -14 43 -75 77 -98 53z"/>
        <path d="M187 384 c-17 -17 -5 -34 24 -34 24 0 30 4 27 18 -3 17 -38 29 -51
16z"/>
        <path d="M176 315 c-3 -9 -18 -15 -37 -15 -17 0 -44 -9 -60 -21 -25 -18 -29
-27 -29 -69 0 -27 4 -51 9 -55 5 -3 53 15 107 41 53 25 108 50 121 55 33 12
27 43 -10 47 -16 2 -31 10 -34 18 -7 19 -59 18 -67 -1z"/>
        <path d="M445 279 c-79 -12 -140 -32 -260 -89 -55 -26 -113 -50 -130 -54 -54
-13 -69 -42 -42 -79 10 -15 51 -21 242 -37 127 -11 233 -20 238 -20 11 0 8 35
-5 48 -9 9 -5 23 14 59 30 56 61 159 53 173 -7 11 -26 11 -110 -1z m-15 -89
c0 -11 -4 -20 -9 -20 -11 0 -22 26 -14 34 12 12 23 5 23 -14z m-12 -57 c12 1
22 5 22 9 0 4 4 8 10 8 16 0 -1 -29 -21 -35 -21 -7 -49 10 -49 29 0 7 3 7 8
-1 4 -7 18 -11 30 -10z"/>
    </g>
</svg>
