<svg viewBox="0 0 163 152" fill="none"
    xmlns="http://www.w3.org/2000/svg">
    <g clip-path="url(#clip0_229_2640)">
        <path d="M127.71 4.05348e-06C120.725 -0.00334067 113.895 2.0633 108.085 5.93852C102.276 9.81374 97.7466 15.3235 95.0712 21.7708C92.3958 28.2181 91.6942 35.3133 93.0551 42.1591C94.416 49.0049 97.7783 55.2936 102.717 60.2299C107.655 65.1661 113.948 68.5282 120.799 69.8908C127.65 71.2533 134.751 70.5552 141.205 67.8847C147.659 65.2142 153.175 60.6913 157.056 54.8881C160.937 49.0848 163.008 42.2619 163.008 35.2824C163.009 30.6498 162.098 26.0621 160.325 21.7815C158.552 17.501 155.952 13.6113 152.674 10.3349C149.396 7.0584 145.505 4.45929 141.221 2.686C136.938 0.912716 132.347 3.66229e-06 127.71 4.05348e-06V4.05348e-06ZM127.71 50.6119C124.674 50.611 121.706 49.7105 119.183 48.0244C116.659 46.3382 114.692 43.9422 113.531 41.1393C112.371 38.3364 112.068 35.2524 112.661 32.2775C113.255 29.3026 114.718 26.5703 116.865 24.4262C119.013 22.2821 121.749 20.8225 124.726 20.2319C127.704 19.6414 130.791 19.9464 133.595 21.1085C136.399 22.2705 138.796 24.2374 140.481 26.7603C142.167 29.2833 143.066 32.249 143.064 35.2824C143.058 39.3482 141.438 43.2454 138.559 46.1192C135.681 48.993 131.779 50.6087 127.71 50.6119" fill="#fff"/>
        <path d="M21.5122 70.567V24.8201C21.5122 22.1364 23.879 19.9381 26.7971 19.9381C29.7152 19.9381 32.0241 22.1122 32.0531 24.7887V70.567H53.5991V24.8201L53.587 24.7887C53.5991 22.1146 55.9491 19.9381 58.8527 19.9381C61.7563 19.9381 64.1159 22.1364 64.1159 24.8201V70.567H85.6329V24.8201C85.6329 11.1429 73.6172 -0.000322225 58.8406 -0.000322225C53.1208 -0.0200058 47.5322 1.71065 42.8261 4.95893C38.1066 1.7178 32.5118 -0.0118817 26.785 -0.000322225C12.0253 -0.000322225 -0.00488281 11.1429 -0.00488281 24.8201V70.567H21.5122Z" fill="#fff"/>
        <path d="M127.71 81.4229C120.725 81.4195 113.897 83.4857 108.087 87.36C102.278 91.2344 97.749 96.743 95.0731 103.189C92.3971 109.635 91.6944 116.73 93.0537 123.575C94.413 130.42 97.7734 136.709 102.71 141.646C107.646 146.583 113.937 149.947 120.787 151.311C127.637 152.676 134.737 151.981 141.192 149.313C147.646 146.646 153.163 142.126 157.047 136.325C160.93 130.524 163.004 123.703 163.008 116.725C163.012 112.09 162.102 107.501 160.33 103.218C158.559 98.935 155.959 95.0431 152.681 91.7646C149.403 88.486 145.51 85.8852 141.226 84.1107C136.941 82.3362 132.348 81.4229 127.71 81.4229V81.4229ZM127.71 132.078C124.667 132.083 121.692 131.185 119.16 129.499C116.629 127.813 114.655 125.415 113.488 122.607C112.321 119.8 112.014 116.709 112.605 113.728C113.197 110.746 114.661 108.006 116.811 105.856C118.962 103.705 121.702 102.241 124.686 101.647C127.67 101.054 130.763 101.358 133.574 102.522C136.385 103.686 138.787 105.656 140.476 108.184C142.166 110.713 143.066 113.685 143.064 116.725C143.058 120.793 141.439 124.692 138.561 127.57C135.683 130.448 131.781 132.069 127.71 132.078" fill="#fff"/>
        <path d="M21.5146 152V106.27C21.5146 103.557 23.8815 101.381 26.7996 101.381C29.7177 101.381 32.0265 103.555 32.0555 106.251V152H53.6016V106.27C53.6016 106.27 53.5895 106.27 53.5895 106.251C53.6016 103.557 55.9515 101.381 58.8551 101.381C61.7587 101.381 64.1183 103.555 64.1183 106.27V152H85.6353V106.27C85.6353 92.588 73.6197 81.4352 58.843 81.4352C53.12 81.4059 47.5274 83.142 42.8285 86.4065C38.1163 83.149 32.5175 81.4139 26.7875 81.4352C12.0278 81.4352 -0.00244141 92.588 -0.00244141 106.27V152H21.5146Z" fill="#fff"/>
    </g>
    <defs>
        <clipPath id="clip0_229_2640">
            <rect width="163" height="152" fill="white"/>
        </clipPath>
    </defs>
</svg>
