<?xml version="1.0" standalone="no"?>
<!DOCTYPE svg PUBLIC "-//W3C//DTD SVG 20010904//EN"
 "http://www.w3.org/TR/2001/REC-SVG-20010904/DTD/svg10.dtd">
<svg version="1.0"
    xmlns="http://www.w3.org/2000/svg" viewBox="0 0 1575.000000 851.000000" preserveAspectRatio="xMidYMid meet">

    <g transform="translate(0.000000,851.000000) scale(0.100000,-0.100000)" stroke="none">
        <path d="M2211 8489 c-159 -31 -312 -111 -433 -227 -123 -117 -193 -231 -245
-399 l-28 -88 -3 -1727 -2 -1726 -695 -297 c-647 -276 -696 -299 -733 -339
-114 -123 -87 -299 58 -389 14 -8 292 -82 619 -162 l593 -148 -550 -551 c-590
-590 -591 -591 -592 -691 0 -113 -32 -76 653 -764 430 -431 645 -639 672 -652
55 -26 156 -25 215 2 34 15 171 146 577 551 293 293 534 530 536 528 2 -3 52
-279 111 -615 71 -406 114 -624 127 -652 53 -111 210 -166 324 -114 87 39 100
64 399 745 l280 636 5460 2 5461 3 76 22 c341 100 581 358 643 693 15 77 16
361 14 2865 -3 3158 7 2815 -94 3020 -120 245 -327 409 -591 469 -66 15 -590
16 -6440 15 -3564 -1 -6388 -5 -6412 -10z m12728 -754 c16 -8 36 -30 45 -49
15 -31 16 -222 16 -2280 l0 -2246 -5070 0 -5070 0 14 33 c7 17 269 614 581
1326 434 992 568 1306 572 1346 8 72 -18 143 -68 194 -54 54 -111 75 -191 69
-57 -4 -238 -79 -1785 -741 -947 -405 -1724 -737 -1728 -737 -3 0 -4 682 -3
1516 l3 1516 37 34 38 34 6290 0 c5488 0 6295 -2 6319 -15z m-9652 -2352 c-2
-10 -320 -736 -705 -1613 -385 -877 -802 -1829 -927 -2115 -125 -286 -230
-523 -234 -527 -3 -4 -39 181 -79 410 -41 229 -78 435 -84 457 -26 102 -113
174 -222 182 -126 11 -105 28 -794 -660 l-612 -612 -415 415 -415 415 624 625
c590 591 625 628 641 679 38 117 -3 229 -107 296 -15 9 -229 68 -475 130 -392
98 -445 114 -423 124 79 36 4217 1809 4224 1810 4 1 6 -7 3 -16z m9747 -2754
c26 -30 26 -32 26 -202 0 -190 -5 -207 -59 -244 l-34 -23 -5268 0 c-3219 0
-5269 4 -5269 9 0 5 41 103 91 218 50 114 98 223 105 241 l14 32 5184 0 5184
0 26 -31z"/>
        <path d="M7195 7621 c-16 -4 -43 -15 -60 -24 -16 -8 -251 -238 -522 -509 -483
-484 -492 -494 -508 -550 -21 -74 -13 -131 29 -200 59 -99 173 -140 287 -103
51 16 84 47 546 508 549 548 540 536 530 654 -12 156 -153 260 -302 224z"/>
        <path d="M8862 6652 c-68 -24 -120 -67 -149 -122 l-23 -43 0 -1066 c0 -1203
-6 -1110 79 -1183 68 -58 84 -60 511 -56 360 4 389 6 454 26 155 49 273 120
377 228 126 133 188 275 197 450 9 195 -56 366 -195 514 l-75 80 25 38 c146
211 162 510 40 732 -102 187 -270 320 -488 386 -88 27 -96 28 -395 31 -278 3
-310 2 -358 -15z m656 -507 c180 -81 223 -267 90 -391 -70 -67 -165 -94 -330
-94 l-88 0 0 261 0 262 133 -5 c118 -4 139 -7 195 -33z m88 -1000 c112 -33
193 -115 202 -205 9 -97 -40 -171 -148 -227 -54 -28 -58 -28 -262 -31 l-208
-3 0 240 0 241 183 0 c133 0 197 -4 233 -15z"/>
        <path d="M10728 6645 c-58 -21 -102 -60 -134 -117 l-29 -53 0 -755 0 -755 27
-98 c147 -535 692 -829 1211 -653 137 47 243 113 352 221 137 136 221 287 263
472 15 70 17 152 17 823 l0 745 -29 53 c-48 86 -124 131 -221 131 -94 1 -179
-55 -221 -144 l-24 -50 0 -700 c0 -762 -1 -774 -57 -877 -36 -65 -130 -153
-199 -185 -259 -118 -561 40 -613 321 -7 40 -11 294 -11 750 0 674 -1 692 -21
736 -27 60 -64 98 -124 126 -57 27 -129 30 -187 9z"/>
        <path d="M12729 6646 c-96 -34 -163 -129 -164 -231 0 -33 7 -76 15 -95 8 -19
175 -250 372 -512 l357 -477 3 -493 c3 -458 4 -495 22 -528 62 -117 180 -171
297 -136 69 20 121 63 153 128 l26 52 0 485 0 484 356 475 c196 261 365 493
375 516 39 86 13 212 -57 278 -90 84 -239 89 -330 10 -18 -15 -154 -191 -304
-392 -150 -201 -276 -369 -280 -374 -5 -4 -131 155 -280 355 -150 200 -284
377 -299 393 -59 65 -176 93 -262 62z"/>
        <path d="M6575 5781 c-120 -30 -195 -126 -195 -248 0 -69 23 -125 71 -172 74
-74 32 -71 819 -71 798 0 747 -5 827 83 104 113 77 294 -55 373 -28 17 -69 34
-89 38 -53 8 -1341 6 -1378 -3z"/>
        <path d="M6160 5094 c-127 -55 -187 -185 -145 -315 16 -51 47 -84 499 -537
364 -366 493 -489 530 -507 63 -31 160 -34 222 -6 87 40 144 131 144 230 0 97
-12 111 -541 637 -536 532 -514 514 -625 514 -27 -1 -65 -8 -84 -16z"/>
    </g>
</svg>
