<?xml version="1.0" standalone="no"?>
<!DOCTYPE svg PUBLIC "-//W3C//DTD SVG 20010904//EN"
 "http://www.w3.org/TR/2001/REC-SVG-20010904/DTD/svg10.dtd">
<svg version="1.0"
    xmlns="http://www.w3.org/2000/svg" viewBox="0 0 1264.000000 914.000000" preserveAspectRatio="xMidYMid meet">

    <g transform="translate(0.000000,914.000000) scale(0.100000,-0.100000)" stroke="none">
        <path d="M9097 9127 c-53 -17 -106 -63 -128 -111 -18 -40 -19 -136 -19 -3250
l0 -3208 -77 69 c-104 93 -158 134 -262 194 -47 28 -88 53 -89 54 -2 2 46 154
107 338 67 201 111 350 111 374 0 23 -11 61 -27 94 -24 46 -37 58 -89 85 -49
26 -189 65 -349 99 -18 4 -23 24 -48 172 -103 630 -344 1342 -673 1989 -459
905 -1032 1558 -1619 1843 -214 105 -390 155 -599 171 -163 13 -2918 12 -3016
0 -106 -14 -188 -44 -272 -99 -129 -84 -214 -194 -266 -346 l-27 -80 -3 -1367
-3 -1368 -652 0 c-366 0 -681 -5 -719 -10 -128 -19 -237 -89 -307 -199 -64
-100 -62 -36 -59 -1467 4 -1458 -3 -1336 79 -1513 95 -204 268 -365 477 -441
113 -41 184 -52 401 -59 l193 -6 33 -91 c142 -398 475 -736 877 -890 662 -253
1407 -13 1801 580 68 101 138 242 169 338 l22 68 1166 0 1166 0 22 -69 c32
-100 113 -260 185 -365 81 -119 266 -304 382 -383 166 -112 337 -186 535 -232
481 -112 1002 34 1368 384 227 217 401 533 445 812 l12 73 237 0 238 0 0 -129
c0 -70 5 -143 11 -162 17 -51 55 -97 99 -119 39 -20 61 -20 1295 -20 1215 0
1257 1 1293 19 173 89 137 339 -55 382 l-53 12 0 1337 0 1337 -23 44 c-13 24
-43 58 -66 74 -42 30 -45 30 -192 33 l-149 4 0 771 c0 425 -4 789 -9 810 -13
54 -54 109 -104 138 l-42 24 -797 3 -797 2 -3 149 c-3 142 -4 149 -30 187 -73
104 -206 125 -298 47 -75 -65 -80 -84 -80 -360 l0 -243 -230 0 -230 0 0 1653
c0 1142 -3 1664 -11 1691 -15 55 -84 120 -141 134 -55 14 -62 14 -111 -1z
m-3657 -1511 c192 -45 350 -115 523 -232 149 -101 237 -176 392 -335 355 -363
705 -902 966 -1484 l59 -130 -163 -7 c-183 -7 -265 -25 -392 -82 l-79 -37
-175 175 -175 175 102 105 c112 115 132 149 132 226 0 113 -87 200 -200 200
-28 0 -65 -6 -83 -14 -18 -8 -191 -173 -393 -377 -393 -396 -392 -394 -380
-493 15 -130 159 -213 282 -161 19 8 83 62 142 119 l107 105 176 -175 176
-176 -39 -78 c-21 -43 -48 -114 -60 -157 -22 -76 -22 -95 -26 -749 l-3 -671
-112 -105 c-62 -58 -134 -133 -162 -166 l-50 -61 -177 0 -178 -1 0 153 c0 260
-42 379 -185 523 -92 93 -174 143 -285 173 -72 20 -99 21 -780 21 -388 0 -738
5 -778 10 -259 34 -475 215 -558 470 -16 50 -19 117 -25 715 -4 469 -10 674
-18 710 -18 73 -84 203 -130 258 -118 142 -276 223 -456 234 -83 5 -198 -9
-258 -33 -17 -6 -18 21 -15 597 3 567 4 606 22 639 36 68 92 114 161 131 17 4
703 6 1525 5 1393 -2 1500 -3 1570 -20z m-2925 -1761 c33 -21 57 -47 79 -85
l31 -55 3 -467 3 -468 -235 0 -236 0 0 448 c0 485 2 509 54 576 14 19 49 46
78 61 72 36 155 32 223 -10z m9055 -1070 l0 -665 -670 0 -670 0 0 665 0 665
670 0 670 0 0 -665z m-1750 -1305 l0 -1760 -230 0 -230 0 0 1760 0 1760 230 0
230 0 0 -1760z m-2207 1333 c37 -115 90 -296 116 -403 46 -181 101 -451 101
-490 0 -15 -17 -18 -132 -24 -285 -14 -583 -87 -827 -202 -63 -30 -118 -54
-122 -54 -5 0 -9 215 -9 478 0 521 4 567 57 664 36 66 105 138 168 174 89 51
158 63 381 63 l200 1 67 -207z m-4946 -536 c90 -327 349 -605 673 -721 166
-60 140 -58 975 -65 864 -7 799 -1 869 -83 20 -23 41 -58 46 -77 5 -20 10
-143 10 -274 0 -263 6 -306 53 -362 60 -74 66 -75 477 -74 422 0 421 0 490 80
25 28 77 88 116 133 294 338 728 570 1194 638 134 20 453 16 585 -6 61 -10
112 -20 114 -22 1 -1 -29 -100 -69 -220 l-72 -216 -47 6 c-113 15 -313 18
-407 7 -523 -64 -958 -374 -1189 -846 -91 -186 -139 -366 -152 -569 l-6 -106
-1098 0 -1098 0 -5 53 c-3 28 -8 84 -11 122 -33 387 -257 789 -580 1040 -189
146 -415 247 -650 291 -136 26 -421 26 -549 1 -507 -101 -923 -437 -1120 -907
-72 -169 -116 -369 -116 -522 l0 -78 -117 0 c-65 0 -147 5 -183 10 -133 21
-267 115 -324 228 -50 98 -56 146 -56 414 l0 248 140 0 c88 0 170 6 218 16
244 49 443 245 497 489 13 58 15 136 13 467 l-3 396 -30 44 c-18 25 -49 52
-75 66 -43 22 -51 22 -402 22 l-358 0 0 230 0 230 1113 0 1112 0 22 -83z
m9333 -1777 l0 -1210 -885 0 -885 0 0 1210 0 1210 885 0 885 0 0 -1210z
m-11120 743 c0 -240 -1 -250 -24 -299 -47 -101 -124 -134 -313 -134 l-123 0 0
340 0 340 230 0 230 0 0 -247z m1991 -657 c132 -33 234 -78 342 -149 317 -207
497 -544 498 -927 1 -186 -35 -332 -123 -502 -173 -332 -505 -555 -878 -587
-578 -51 -1091 350 -1186 925 -20 125 -14 314 15 430 108 438 480 770 933 834
105 15 291 4 399 -24z m5195 10 c659 -140 1044 -828 815 -1456 -60 -164 -151
-301 -281 -423 -210 -198 -464 -298 -755 -298 -378 -1 -715 181 -920 495 -289
442 -228 1017 146 1385 166 164 399 279 629 311 87 12 278 5 366 -14z"/>
        <path d="M2482 2145 c-130 -29 -264 -109 -354 -210 -53 -60 -93 -131 -124
-220 -24 -69 -28 -96 -28 -195 0 -94 4 -128 23 -185 73 -225 247 -389 464
-440 74 -17 215 -19 289 -4 72 15 202 79 263 129 105 88 187 216 220 345 18
69 20 211 4 287 -6 29 -31 96 -56 148 -101 210 -307 345 -543 356 -61 2 -117
-1 -158 -11z m193 -406 c93 -24 165 -119 165 -220 -1 -198 -227 -301 -379
-173 -79 66 -101 197 -48 286 30 51 70 84 126 104 45 16 80 17 136 3z"/>
        <path d="M7750 2154 c-139 -27 -254 -88 -355 -189 -130 -130 -186 -262 -186
-440 0 -120 11 -173 61 -280 65 -143 173 -247 324 -315 81 -36 149 -50 251
-50 115 0 175 14 280 66 111 53 188 120 254 220 72 106 104 210 104 339 1 121
-13 184 -65 295 -71 150 -224 279 -392 332 -60 19 -225 32 -276 22z m159 -414
c56 -16 107 -58 137 -113 109 -200 -105 -415 -307 -309 -80 42 -113 94 -117
186 -3 59 0 81 17 113 50 100 167 153 270 123z"/>
    </g>
</svg>
