<?xml version="1.0" encoding="utf-8"?>
<!-- Generator: Adobe Illustrator 26.0.0, SVG Export Plug-In . SVG Version: 6.00 Build 0)  -->
<svg version="1.1" id="Layer_1"
	xmlns="http://www.w3.org/2000/svg"
	xmlns:xlink="http://www.w3.org/1999/xlink" x="0px" y="0px" viewBox="0 0 533.1 324.1" style="enable-background:new 0 0 533.1 324.1;" xml:space="preserve">
	<style type="text/css">
	.st1{fill:#E47225;}
	.st2{fill:#E98823;}
	.st3{fill:#F0AD1E;}
	</style>
	<g id="surface1">
		<path class="st0" d="M275.7,123.7c-0.2,0.5-0.3,0.8-0.3,1c0,10.1-0.1,20.1-0.1,30.2c0,1.6,1.1,1.6,2.2,1.6c11.7,0,23.4,0.1,35-0.2
		c2.9-0.1,6-0.8,8.7-1.9c6.9-2.7,10.4-8.9,9.7-16.5c-0.6-6.8-4.7-11.8-12.2-13c-6.2-1-12.6-1-18.9-1.1
		C291.7,123.5,283.7,123.7,275.7,123.7z M275.8,179.8c0,13,0,25.8,0,38.6c0.7,0.1,1.2,0.2,1.7,0.2c13.3,0,26.6,0.1,39.9-0.1
		c3.4-0.1,7-0.8,10.3-1.8c8.8-2.7,13.3-8.7,13.3-17.1c0-8.6-4.7-15.3-13.3-17.8c-4-1.2-8.4-1.9-12.6-2c-12.3-0.3-24.7-0.1-37.1-0.1
		C277.4,179.7,276.8,179.8,275.8,179.8z M343.6,164.8c3.2,1.1,6.2,1.9,8.9,3.1c14.5,6.2,22.3,16.9,22.6,32.2
		c0.3,12.7-3.6,23.9-14.3,32.1c-7.3,5.7-15.9,8.6-25.2,9.7c-4.9,0.6-9.9,1-14.9,1c-23.3,0.1-46.6,0-69.8,0c-6.4,0-8.6-2-8.6-8.3
		c-0.1-8.3,0-16.5,0-24.8c0-33.8,0-67.5,0-101.3c0-1.3,0-2.6,0.3-3.9c0.8-3.6,3-5.3,6.8-5.3c23.4,0,46.7-0.1,70.1,0.1
		c8.6,0.1,17.1,1.4,25.1,4.7c14.1,5.8,21.1,16.6,20.4,31.2c-0.6,12.2-7.2,21-17.7,27.4C346.1,163.4,345,164,343.6,164.8" fill="#fff"/>
		<path class="st0" d="M16.9,99.4c3,0,6,0,9,0c4.3,0,6.6,1.4,7.8,5.4c1.9,6.5,3.5,13.1,5.2,19.7c5.8,21.8,11.8,43.6,21.7,64.1
		c2.6,5.5,5.8,10.8,9.2,15.8c5.5,8.2,12.5,8.1,18.1-0.1c8-11.6,13.2-24.4,17-37.6c5.2-18.7,9.7-37.5,14.5-56.3
		c0.6-2.3,1.2-4.6,2.1-6.8c1.1-2.9,3.5-4.3,6.8-4.3c6.3,0,12.5,0,18.8,0c5.5,0,8.5,3.4,7.5,8.7c-0.9,4.9-1.9,9.8-2.9,14.7
		c-3.6,18.2-7.8,36.3-13.9,53.9c-6.2,17.7-14,34.6-25,50c-5.2,7.3-11.3,13.6-20.2,16.9c-15.7,5.8-32.2,1.5-43.3-11.3
		c-8.6-10-14.8-21.4-20.6-33c-9.6-19.4-16.5-39.7-21.7-60.5c-2.5-10-4.7-20.1-6.9-30.1c-1.3-5.9,1.6-9.2,7.9-9.2
		C11.1,99.3,14,99.4,16.9,99.4" fill="#fff"/>
		<path class="st0" d="M178,171c0-21.3,0-42.7,0-64c0-2.4,0.1-4.9,2.5-6.3c1.2-0.7,2.7-1.2,4-1.2c6.8-0.1,13.6-0.1,20.3,0
		c3.8,0,6.4,2.5,6.6,6.1c0,0.7,0,1.3,0,2c0,42.5,0,85,0,127.5c0,6-2.1,8-8.5,8c-5.8,0-11.5,0-17.3,0c-5.4,0-7.7-2.1-7.7-7.3
		C178,214.1,178,192.5,178,171" fill="#fff"/>
		<path class="st1" d="M533.1,43.5c-5.5,8.3-9.5,17.5-16.6,24.9c-5.1,5.2-11.9,7.2-18.9,8.7c-7.1,1.4-14.2,2.9-21.3,4.4
		c-0.7,0.2-1.4,0.5-2.3,0.8c2.1,6.4,4.3,12.7,6.3,19c1.3,4.1,2.7,8.3,3.4,12.5c0.9,5.4-0.3,10.6-3,15.4c-4,7.1-8.2,14.1-12.7,21.8
		c-1.8-4.5-3.4-8.3-5-12.1c-5.2-12.9-10.4-25.7-15.5-38.6c-1.1-2.9-2-5.9-2.5-9c-0.8-4.9,0.1-9.6,2.8-13.9c3-4.8,6-9.7,8.9-14.6
		c3.9-6.5,10.1-9.7,17.5-10.9c15.7-2.6,31.4-4.9,47.1-7.4c3.8-0.6,7.6-1.1,11.4-1.7C532.8,43.1,532.9,43.3,533.1,43.5"/>
		<path class="st2" d="M417,149.4c-0.7-1.1-1.5-2.1-2.1-3.2c-3.5-6.1-7.1-12.1-10.5-18.2c-4.2-7.6-3-15.3-0.3-23
		c2.3-6.7,4.5-13.3,6.7-20c1-3.2,0.7-3.3-2.9-4c-8.9-1.8-17.7-3.6-26.5-5.7c-8.3-2-13.9-7.4-18.2-14.2c-3.2-5.1-6.4-10.3-9.5-15.4
		c-0.3-0.6-0.3-1.4-0.4-2c0.7-0.1,1.4-0.2,2.1-0.1c5.6,0.8,11.1,1.7,16.7,2.5c5.7,0.9,11.5,1.8,17.2,2.6c4.8,0.7,9.6,1.3,14.4,2.2
		c4.8,0.9,9.7,1.5,14.1,3.3c3.5,1.5,7,4.2,9.2,7.2c4.3,5.9,7.7,12.5,11.5,18.8c3.1,5.3,2.3,10.9,0.4,16.2
		c-4.9,13.1-10.2,25.9-15.4,38.9c-1.9,4.7-3.8,9.4-5.7,14.1C417.5,149.3,417.2,149.4,417,149.4"/>
		<path class="st3" d="M378.2,0.7c10.3,0.4,20.7-1,31,1.1c7.3,1.5,12.5,6.1,17.4,11.2c4.9,5.1,9.8,10.2,14.8,15.3
		c0.5,0.5,1.2,0.9,1.9,1.5c4.8-5,9.3-10,14.1-14.8c3.1-3.2,6.1-6.4,9.6-9.1c4.4-3.4,9.8-5.1,15.5-5.3c8.5-0.3,16.9-0.4,26.2-0.5
		c-3.1,3.8-5.8,7-8.5,10.2C491,21,482,31.8,472.8,42.4c-2,2.4-4.4,4.6-6.9,6.6c-4,3.1-8.7,4.7-14,4.7c-5.9-0.1-11.8,0-17.7,0.1
		c-7.9,0.1-13.9-3.4-18.7-8.9c-10.3-11.6-20.3-23.3-30.5-35c-2.4-2.8-4.8-5.7-7.2-8.5C377.9,1.1,378,0.9,378.2,0.7"/>
	</g>
</svg>

